HIERARCHY
ROOT Hips
{
  OFFSET 45.6458 95.8672 38.238
  CHANNELS 6 Xposition Yposition Zposition Zrotation Xrotation Yrotation
  JOINT spine
  {
    OFFSET 0 7.96568 0.458067
    CHANNELS 3 Zrotation Xrotation Yrotation
    JOINT spine1
    {
      OFFSET 0 10.2431 0
      CHANNELS 3 Zrotation Xrotation Yrotation
      JOINT spine2
      {
        OFFSET 0 9.81475 0
        CHANNELS 3 Zrotation Xrotation Yrotation
        JOINT Neck
        {
          OFFSET 0 25.1986 1.20138
          CHANNELS 3 Zrotation Xrotation Yrotation
          JOINT Head
          {
            OFFSET 0 7.61315 0
            CHANNELS 3 Zrotation Xrotation Yrotation
            End Site
            {
              OFFSET 0 18.4281 -6.07733
            }
          }
        }
        JOINT RightShoulder
        {
          OFFSET -4.1327 10.5992 -0.575451
          CHANNELS 3 Zrotation Xrotation Yrotation
          JOINT RightArm
          {
            OFFSET 0 13.9018 0
            CHANNELS 3 Zrotation Xrotation Yrotation
            JOINT RightArmRoll
            {
              OFFSET 0 7.01789 0
              CHANNELS 3 Zrotation Xrotation Yrotation
              JOINT RightForeArm
              {
                OFFSET 0 20.4406 0
                CHANNELS 3 Zrotation Xrotation Yrotation
                JOINT RightForeArmRoll
                {
                  OFFSET 0 7.87515 0
                  CHANNELS 3 Zrotation Xrotation Yrotation
                  JOINT RightHand
                  {
                    OFFSET 0 15.8037 0
                    CHANNELS 3 Zrotation Xrotation Yrotation
                    End Site
                    {
                      OFFSET 0 0 0
                    }
                  }
                }
              }
            }
          }
        }
        JOINT LeftShoulder
        {
          OFFSET 4.1327 10.5992 -0.575451
          CHANNELS 3 Zrotation Xrotation Yrotation
          JOINT LeftArm
          {
            OFFSET 0 13.9018 0
            CHANNELS 3 Zrotation Xrotation Yrotation
            JOINT LeftArmRoll
            {
              OFFSET 0 7.01789 0
              CHANNELS 3 Zrotation Xrotation Yrotation
              JOINT LeftForeArm
              {
                OFFSET 0 20.4406 0
                CHANNELS 3 Zrotation Xrotation Yrotation
                JOINT LeftForeArmRoll
                {
                  OFFSET 0 7.87516 0
                  CHANNELS 3 Zrotation Xrotation Yrotation
                  JOINT LeftHand
                  {
                    OFFSET 0 15.8037 0
                    CHANNELS 3 Zrotation Xrotation Yrotation
                    End Site
                    {
                      OFFSET 0 0 0
                    }
                  }
                }
              }
            }
          }
        }
      }
    }
  }
  JOINT RightUpLeg
  {
    OFFSET -7.06048 -1.2947 -1.0861
    CHANNELS 3 Zrotation Xrotation Yrotation
    JOINT RightUpLegRoll
    {
      OFFSET 0 18.5308 0
      CHANNELS 3 Zrotation Xrotation Yrotation
      JOINT RightLeg
      {
        OFFSET 0 -22.9476 0
        CHANNELS 3 Zrotation Xrotation Yrotation
        JOINT RightLegRoll
        {
          OFFSET 0 23.0226 0
          CHANNELS 3 Zrotation Xrotation Yrotation
          JOINT RightFoot
          {
            OFFSET 0 19.1625 0
            CHANNELS 3 Zrotation Xrotation Yrotation
            JOINT RightToeBase
            {
              OFFSET 0 16.0188 0
              CHANNELS 3 Zrotation Xrotation Yrotation
              End Site
              {
                OFFSET 0.00678979 7.75782 -0.894206
              }
            }
          }
        }
      }
    }
  }
  JOINT LeftUpLeg
  {
    OFFSET 7.06048 -1.2947 -1.0861
    CHANNELS 3 Zrotation Xrotation Yrotation
    JOINT LeftUpLegRoll
    {
      OFFSET 0 18.5309 0
      CHANNELS 3 Zrotation Xrotation Yrotation
      JOINT LeftLeg
      {
        OFFSET 0 22.9475 0
        CHANNELS 3 Zrotation Xrotation Yrotation
        JOINT LeftLegRoll
        {
          OFFSET 0 23.2355 0
          CHANNELS 3 Zrotation Xrotation Yrotation
          JOINT LeftFoot
          {
            OFFSET 0 18.9496 0
            CHANNELS 3 Zrotation Xrotation Yrotation
            JOINT LeftToeBase
            {
              OFFSET 0 16.0188 0
              CHANNELS 3 Zrotation Xrotation Yrotation
              End Site
              {
                OFFSET -0.0304289 7.75782 -0.894206
              }
            }
          }
        }
      }
    }
  }
}
MOTION
Frames: 6
Frame Time: 0.00208333
48.6575 95.6914 16.8903 -1.166 -0.884029 0.230118 0.208246 -1.9427 -0.123828 0.408174 0.117503 -0.267964 0.411804 1.76254 -0.274967 1.71239 19.7054 -1.35454 -1.80489 1.14745 -0.979234 72.9058 1.14108 -1.13413 106.624 19.7206 20.02 -6.54983e-006 -2.31342e-006 -3.95185e-006 2.06876 0.0198892 -0.144426 -4.40458e-006 1.12148e-006 -3.03744 8.03002 -4.95137 0.697648 -73.1344 2.31431 0.630599 -108.427 19.2606 -18.2007 5.56597e-015 6.36111e-015 4.77083e-015 -0.904897 0.0118619 -0.324148 1.11506e-005 -4.69702e-007 3.00698 -8.03018 -4.95137 -0.697637 177.565 -1.53572 -3.08884 180 7.01538e-015 178.885 177.544 3.9418 179.607 -5.37675e-007 -3.05192e-006 0.0502203 -18.9515 68.1231 19.6408 8.13231 25.2329 -3.48595 -173.492 1.58174 0.278894 4.54188e-006 -4.6773e-006 -1.14726 -1.54948 -8.44343 0.157717 -4.23466e-006 -4.46816e-006 -0.158532 19.8762 69.2215 -20.6037 -8.13298 25.2601 3.45345 
48.661 95.695 16.8874 -1.16825 -0.879991 0.221411 0.208194 -1.94243 -0.123769 0.408047 0.117993 -0.26843 0.411676 1.76303 -0.275428 1.7137 19.6943 -1.35273 -1.80474 1.16582 -0.976549 72.902 1.1419 -1.13323 106.633 19.712 20.0142 -6.54983e-006 -2.31342e-006 -3.95185e-006 2.07459 0.0198892 -0.144254 -4.40458e-006 1.12148e-006 -3.03744 8.03002 -4.95137 0.697648 -73.1177 2.31104 0.629792 -108.444 19.2524 -18.1937 5.56597e-015 6.36111e-015 -3.18055e-015 -0.907112 0.0118619 -0.324406 1.11506e-005 -4.69702e-007 3.00698 -8.03018 -4.95137 -0.697637 177.567 -1.52661 -3.09038 180 7.01538e-015 178.885 177.545 3.94948 179.607 -5.37675e-007 -3.05192e-006 0.0502203 -18.9499 68.1211 19.639 8.13231 25.2329 -3.48595 -173.49 1.58204 0.277585 4.54188e-006 -4.6773e-006 -1.14726 -1.55033 -8.44335 0.157639 -4.23466e-006 -4.46816e-006 -0.158479 19.8792 69.2246 -20.6069 -8.13297 25.26 3.45328 
48.6604 95.6954 16.8884 -1.1705 -0.876213 0.212689 0.208116 -1.94214 -0.123659 0.407859 0.11854 -0.268853 0.411487 1.76358 -0.275846 1.71497 19.6833 -1.35087 -1.80407 1.18441 -0.973752 72.8982 1.14277 -1.13232 106.643 19.7031 20.0084 -6.54983e-006 -2.31342e-006 -3.95185e-006 2.08056 0.0198891 -0.144106 -4.40458e-006 1.12148e-006 -3.03744 8.03002 -4.95137 0.697648 -73.1009 2.308 0.628854 -108.461 19.2441 -18.187 -1.59028e-015 6.36111e-015 -4.77083e-015 -0.90905 0.0118619 -0.324665 1.11506e-005 -4.69702e-007 3.00698 -8.03018 -4.95137 -0.697637 177.569 -1.51783 -3.09202 180 7.01538e-015 178.885 177.547 3.95717 179.608 -5.37675e-007 -3.05192e-006 0.0502203 -18.9485 68.1195 19.6374 8.13231 25.2329 -3.48595 -173.488 1.58155 0.276189 4.54188e-006 -4.6773e-006 -1.14726 -1.55126 -8.44247 0.157542 -4.23466e-006 -4.46816e-006 -0.1584 19.8821 69.2277 -20.6102 -8.13296 25.2597 3.45327 
48.6614 95.6916 16.8929 -1.17275 -0.872615 0.203955 0.20802 -1.94182 -0.123514 0.407627 0.119126 -0.269246 0.411253 1.76417 -0.276232 1.71623 19.6724 -1.34897 -1.80303 1.20314 -0.970878 72.8944 1.14367 -1.13139 106.653 19.6939 20.0026 -6.54983e-006 -2.31342e-006 -3.95185e-006 2.08662 0.019889 -0.143974 -4.40458e-006 1.12148e-006 -3.03744 8.03002 -4.95137 0.697648 -73.0839 2.30512 0.627824 -108.478 19.2355 -18.1806 -8.74653e-015 3.18055e-015 -1.11319e-014 -0.910792 0.0118619 -0.324924 1.11506e-005 -4.69702e-007 3.00698 -8.03018 -4.95137 -0.697637 177.571 -1.5093 -3.09374 180 7.01538e-015 178.885 177.548 3.96492 179.608 -5.37675e-007 -3.05192e-006 0.0502203 -18.9473 68.1181 19.6361 8.13231 25.2329 -3.48595 -173.486 1.58053 0.274732 4.54188e-006 -4.6773e-006 -1.14726 -1.55225 -8.44104 0.157431 -4.23466e-006 -4.46816e-006 -0.158303 19.8851 69.2308 -20.6134 -8.13293 25.2594 3.45336 
48.6578 95.6915 16.8908 -1.175 -0.869121 0.195216 0.207914 -1.94149 -0.123349 0.40737 0.119734 -0.269622 0.410995 1.76478 -0.276602 1.71747 19.6615 -1.34705 -1.80178 1.22195 -0.96796 72.8906 1.14459 -1.13045 106.663 19.6847 19.9967 -6.54983e-006 -2.31342e-006 -3.95185e-006 2.09273 0.0198889 -0.143851 -4.40458e-006 1.12148e-006 -3.03744 8.03002 -4.95137 0.697648 -73.0669 2.30234 0.626742 -108.496 19.2269 -18.1742 1.03368e-014 6.36111e-015 3.18055e-015 -0.912424 0.0118619 -0.325185 1.11506e-005 -4.69702e-007 3.00698 -8.03018 -4.95137 -0.697637 177.573 -1.5009 -3.09551 180 7.01538e-015 178.885 177.549 3.97269 179.608 -5.37675e-007 -3.05192e-006 0.0502203 -18.9461 68.1167 19.6348 8.13231 25.2329 -3.48595 -173.484 1.57918 0.273241 4.54188e-006 -4.6773e-006 -1.14726 -1.55328 -8.43928 0.157314 -4.23466e-006 -4.46816e-006 -0.158195 19.8881 69.234 -20.6166 -8.13291 25.2591 3.45351 
48.6581 95.6919 16.8943 -1.17725 -0.865653 0.186474 0.207806 -1.94116 -0.123178 0.407107 0.120347 -0.269994 0.410731 1.76539 -0.276966 1.71871 19.6507 -1.34512 -1.80048 1.24079 -0.96503 72.8868 1.14551 -1.12951 106.673 19.6754 19.9909 -6.54983e-006 -2.31342e-006 -3.95185e-006 2.09885 0.0198889 -0.143731 -4.40458e-006 1.12148e-006 -3.03744 8.03002 -4.95137 0.697648 -73.0498 2.29958 0.625647 -108.513 19.2183 -18.1679 -1.03368e-014 -3.18055e-015 -7.95139e-015 -0.914028 0.0118619 -0.325446 1.11506e-005 -4.69702e-007 3.00698 -8.03018 -4.95137 -0.697637 177.575 -1.49254 -3.09728 180 7.01538e-015 178.885 177.551 3.98044 179.609 -5.37675e-007 -3.05192e-006 0.0502203 -18.945 68.1154 19.6335 8.13231 25.2329 -3.48595 -173.483 1.57777 0.271742 4.54188e-006 -4.6773e-006 -1.14726 -1.55432 -8.43745 0.157194 -4.23466e-006 -4.46816e-006 -0.158085 19.8911 69.2371 -20.6199 -8.13289 25.2587 3.45367 
